<svg width="34" height="34" viewBox="0 0 34 34" fill="none" xmlns="http://www.w3.org/2000/svg">
<path d="M33.2512 20.9884L18.8057 33.3598C17.8072 34.2149 16.1928 34.2149 15.1943 33.3507L0.748828 20.9793C-0.24961 20.1333 -0.24961 18.7506 0.748828 17.8955L3.15995 15.8397C4.14777 14.9846 5.76226 14.9846 6.7607 15.8397L17 24.6089L27.2499 15.8488C28.2377 14.9937 29.8522 14.9937 30.8507 15.8488L33.2512 17.9046C34.2496 18.7506 34.2496 20.1333 33.2512 20.9884Z" fill="white"/>
<path opacity="0.5" d="M33.2512 5.78917L18.8057 18.1606C17.8072 19.0157 16.1928 19.0157 15.1943 18.1515L0.748828 5.78008C-0.24961 4.93409 -0.24961 3.5514 0.748828 2.69632L3.15995 0.64048C4.14777 -0.214606 5.76226 -0.214606 6.7607 0.64048L17 9.40964L27.2499 0.649577C28.2377 -0.205507 29.8522 -0.205507 30.8507 0.649577L33.2512 2.70541C34.2496 3.5514 34.2496 4.93409 33.2512 5.78917Z" fill="white"/>
</svg>
